<svg xmlns="http://www.w3.org/2000/svg" xmlns:xlink="http://www.w3.org/1999/xlink" width="40" zoomAndPan="magnify" viewBox="0 0 30 30.000001" height="40" preserveAspectRatio="xMidYMid meet" version="1.0"><defs><clipPath id="3a77a72a5d"><path d="M 3.386719 2.902344 L 25.886719 2.902344 L 25.886719 25.402344 L 3.386719 25.402344 Z M 3.386719 2.902344 " clip-rule="nonzero"/></clipPath></defs><g clip-path="url(#3a77a72a5d)"><path fill="#ffffff" d="M 14.640625 2.902344 C 13.902344 2.902344 13.171875 2.976562 12.449219 3.121094 C 11.722656 3.265625 11.019531 3.476562 10.335938 3.761719 C 9.65625 4.042969 9.007812 4.390625 8.390625 4.800781 C 7.777344 5.210938 7.210938 5.679688 6.6875 6.203125 C 6.164062 6.722656 5.699219 7.292969 5.289062 7.90625 C 4.878906 8.519531 4.53125 9.167969 4.25 9.851562 C 3.96875 10.535156 3.753906 11.238281 3.609375 11.964844 C 3.464844 12.6875 3.394531 13.417969 3.394531 14.15625 C 3.394531 14.898438 3.46875 15.628906 3.613281 16.351562 C 3.757812 17.078125 3.96875 17.78125 4.253906 18.464844 C 4.535156 19.144531 4.882812 19.792969 5.292969 20.40625 C 5.703125 21.023438 6.171875 21.589844 6.691406 22.113281 C 7.214844 22.636719 7.785156 23.101562 8.398438 23.511719 C 9.011719 23.921875 9.660156 24.269531 10.34375 24.550781 C 11.027344 24.832031 11.730469 25.046875 12.453125 25.191406 C 13.179688 25.335938 13.910156 25.40625 14.648438 25.40625 C 15.386719 25.40625 16.121094 25.332031 16.84375 25.1875 C 17.570312 25.042969 18.273438 24.832031 18.953125 24.546875 C 19.636719 24.265625 20.285156 23.917969 20.898438 23.507812 C 21.511719 23.097656 22.082031 22.632812 22.605469 22.109375 C 23.125 21.585938 23.59375 21.015625 24.003906 20.402344 C 24.414062 19.789062 24.757812 19.140625 25.042969 18.457031 C 25.324219 17.773438 25.539062 17.070312 25.683594 16.347656 C 25.824219 15.621094 25.898438 14.890625 25.898438 14.152344 C 25.894531 13.414062 25.824219 12.683594 25.675781 11.957031 C 25.53125 11.234375 25.316406 10.53125 25.035156 9.847656 C 24.75 9.167969 24.402344 8.519531 23.992188 7.90625 C 23.582031 7.292969 23.117188 6.722656 22.59375 6.203125 C 22.070312 5.679688 21.503906 5.214844 20.890625 4.804688 C 20.277344 4.394531 19.628906 4.046875 18.945312 3.765625 C 18.261719 3.480469 17.558594 3.265625 16.835938 3.121094 C 16.113281 2.976562 15.378906 2.90625 14.640625 2.902344 Z M 17.75 23.644531 C 17.261719 23.746094 17.082031 23.445312 17.082031 23.1875 C 17.082031 22.855469 17.09375 21.808594 17.09375 20.5 C 17.09375 19.59375 16.789062 19 16.433594 18.699219 C 18.605469 18.457031 20.886719 17.628906 20.886719 13.882812 C 20.902344 12.875 20.566406 12.003906 19.882812 11.265625 C 19.980469 11.019531 20.324219 10.019531 19.785156 8.675781 C 19.785156 8.675781 18.96875 8.40625 17.101562 9.671875 C 15.480469 9.234375 13.855469 9.234375 12.230469 9.671875 C 10.363281 8.421875 9.542969 8.675781 9.542969 8.675781 C 9.011719 10.015625 9.351562 11.015625 9.449219 11.265625 C 8.769531 12.003906 8.4375 12.878906 8.453125 13.882812 C 8.453125 17.613281 10.722656 18.457031 12.890625 18.699219 C 12.609375 18.941406 12.351562 19.367188 12.265625 20.007812 C 11.703125 20.257812 10.304688 20.671875 9.429688 19.203125 C 9.242188 18.90625 8.699219 18.191406 7.929688 18.199219 C 7.113281 18.210938 7.601562 18.664062 7.9375 18.84375 C 8.351562 19.082031 8.828125 19.941406 8.941406 20.222656 C 9.136719 20.773438 9.765625 21.824219 12.214844 21.371094 C 12.214844 22.1875 12.230469 22.957031 12.230469 23.183594 C 12.230469 23.441406 12.050781 23.726562 11.5625 23.644531 C 11.199219 23.519531 10.84375 23.378906 10.5 23.214844 C 10.15625 23.054688 9.820312 22.871094 9.496094 22.667969 C 9.171875 22.46875 8.863281 22.246094 8.5625 22.007812 C 8.265625 21.769531 7.984375 21.515625 7.714844 21.242188 C 7.449219 20.96875 7.195312 20.683594 6.960938 20.382812 C 6.726562 20.082031 6.511719 19.765625 6.316406 19.4375 C 6.117188 19.113281 5.941406 18.773438 5.785156 18.425781 C 5.625 18.078125 5.488281 17.722656 5.375 17.359375 C 5.257812 16.996094 5.164062 16.628906 5.089844 16.253906 C 5.019531 15.878906 4.96875 15.5 4.941406 15.121094 C 4.914062 14.738281 4.90625 14.359375 4.925781 13.976562 C 4.941406 13.59375 4.980469 13.214844 5.042969 12.839844 C 5.101562 12.460938 5.1875 12.089844 5.292969 11.722656 C 5.398438 11.355469 5.523438 10.996094 5.671875 10.644531 C 5.816406 10.292969 5.984375 9.949219 6.171875 9.617188 C 6.359375 9.285156 6.566406 8.964844 6.792969 8.65625 C 7.019531 8.347656 7.261719 8.054688 7.519531 7.777344 C 7.78125 7.496094 8.054688 7.234375 8.347656 6.984375 C 8.636719 6.738281 8.941406 6.507812 9.257812 6.296875 C 9.578125 6.085938 9.90625 5.894531 10.246094 5.722656 C 10.585938 5.546875 10.9375 5.394531 11.292969 5.265625 C 11.652344 5.132812 12.015625 5.023438 12.386719 4.933594 C 12.757812 4.84375 13.136719 4.777344 13.515625 4.734375 C 13.894531 4.6875 14.273438 4.667969 14.65625 4.667969 C 15.035156 4.667969 15.417969 4.6875 15.796875 4.734375 C 16.175781 4.777344 16.550781 4.84375 16.921875 4.933594 C 17.292969 5.023438 17.65625 5.132812 18.015625 5.265625 C 18.375 5.394531 18.722656 5.546875 19.0625 5.722656 C 19.40625 5.894531 19.734375 6.085938 20.050781 6.296875 C 20.371094 6.507812 20.671875 6.738281 20.964844 6.984375 C 21.253906 7.234375 21.53125 7.496094 21.789062 7.777344 C 22.050781 8.054688 22.292969 8.347656 22.519531 8.65625 C 22.742188 8.964844 22.949219 9.285156 23.136719 9.617188 C 23.324219 9.949219 23.492188 10.292969 23.640625 10.644531 C 23.789062 10.996094 23.914062 11.355469 24.019531 11.722656 C 24.125 12.089844 24.207031 12.460938 24.269531 12.839844 C 24.332031 13.214844 24.371094 13.59375 24.386719 13.976562 C 24.402344 14.359375 24.398438 14.738281 24.371094 15.121094 C 24.339844 15.5 24.292969 15.878906 24.21875 16.253906 C 24.148438 16.628906 24.054688 16.996094 23.9375 17.359375 C 23.820312 17.722656 23.683594 18.078125 23.527344 18.425781 C 23.371094 18.773438 23.191406 19.113281 22.996094 19.4375 C 22.796875 19.765625 22.582031 20.082031 22.347656 20.382812 C 22.113281 20.683594 21.863281 20.96875 21.59375 21.242188 C 21.328125 21.515625 21.042969 21.769531 20.746094 22.007812 C 20.449219 22.246094 20.136719 22.46875 19.8125 22.667969 C 19.488281 22.871094 19.15625 23.054688 18.808594 23.214844 C 18.464844 23.378906 18.109375 23.519531 17.75 23.644531 Z M 17.75 23.644531 " fill-opacity="1" fill-rule="evenodd"/></g></svg>