<svg xmlns="http://www.w3.org/2000/svg" xmlns:xlink="http://www.w3.org/1999/xlink" width="40" zoomAndPan="magnify" viewBox="0 0 30 30.000001" height="40" preserveAspectRatio="xMidYMid meet" version="1.0"><defs><clipPath id="51582ac348"><path d="M 3.386719 2.902344 L 26.613281 2.902344 L 26.613281 26.128906 L 3.386719 26.128906 Z M 3.386719 2.902344 " clip-rule="nonzero"/></clipPath></defs><g clip-path="url(#51582ac348)"><path fill="#ffffff" d="M 10.214844 2.902344 C 6.46875 2.902344 3.386719 5.980469 3.386719 9.730469 L 3.386719 19.300781 C 3.386719 23.046875 6.464844 26.128906 10.214844 26.128906 L 19.785156 26.128906 C 23.53125 26.128906 26.613281 23.050781 26.613281 19.300781 L 26.613281 9.730469 C 26.613281 5.984375 23.535156 2.902344 19.785156 2.902344 Z M 10.214844 5.015625 L 19.785156 5.015625 C 22.394531 5.015625 24.5 7.121094 24.5 9.730469 L 24.5 19.300781 C 24.5 21.910156 22.394531 24.019531 19.785156 24.019531 L 10.214844 24.019531 C 7.605469 24.019531 5.5 21.910156 5.5 19.300781 L 5.5 9.730469 C 5.5 7.121094 7.605469 5.015625 10.214844 5.015625 Z M 21.234375 7.324219 C 20.703125 7.324219 20.277344 7.75 20.277344 8.28125 C 20.277344 8.8125 20.703125 9.238281 21.234375 9.238281 C 21.765625 9.238281 22.191406 8.8125 22.191406 8.28125 C 22.191406 7.75 21.765625 7.324219 21.234375 7.324219 Z M 15 8.183594 C 11.515625 8.183594 8.664062 11.03125 8.664062 14.515625 C 8.664062 18 11.515625 20.851562 15 20.851562 C 18.484375 20.851562 21.335938 18 21.335938 14.515625 C 21.335938 11.03125 18.484375 8.183594 15 8.183594 Z M 15 10.292969 C 17.347656 10.292969 19.222656 12.167969 19.222656 14.515625 C 19.222656 16.863281 17.347656 18.738281 15 18.738281 C 12.652344 18.738281 10.777344 16.863281 10.777344 14.515625 C 10.777344 12.167969 12.652344 10.292969 15 10.292969 Z M 15 10.292969 " fill-opacity="1" fill-rule="nonzero"/></g></svg>