<svg xmlns="http://www.w3.org/2000/svg" xmlns:xlink="http://www.w3.org/1999/xlink" width="40" zoomAndPan="magnify" viewBox="0 0 30 30.000001" height="40" preserveAspectRatio="xMidYMid meet" version="1.0"><defs><g/><clipPath id="fbbfc04d29"><path d="M 3.386719 2.902344 L 26.613281 2.902344 L 26.613281 26.128906 L 3.386719 26.128906 Z M 3.386719 2.902344 " clip-rule="nonzero"/></clipPath></defs><g clip-path="url(#fbbfc04d29)"><path fill="#ffffff" d="M 15 26.128906 C 8.585938 26.128906 3.386719 20.894531 3.386719 14.515625 C 3.386719 8.136719 8.585938 2.902344 15 2.902344 C 21.414062 2.902344 26.613281 8.101562 26.613281 14.515625 C 26.613281 20.933594 21.378906 26.128906 15 26.128906 Z M 15 3.621094 C 8.976562 3.621094 4.105469 8.496094 4.105469 14.515625 C 4.105469 20.539062 8.976562 25.414062 15 25.414062 C 21.023438 25.414062 25.894531 20.539062 25.894531 14.515625 C 25.894531 8.496094 20.984375 3.621094 15 3.621094 Z M 15 3.621094 " fill-opacity="1" fill-rule="nonzero"/></g><g fill="#ffffff" fill-opacity="1"><g transform="translate(9.204889, 18.870969)"><g><path d="M 0.96875 -9.3125 C 0.96875 -9.96875 1.335938 -10.296875 2.078125 -10.296875 C 2.804688 -10.296875 3.171875 -9.96875 3.171875 -9.3125 C 3.171875 -9 3.078125 -8.753906 2.890625 -8.578125 C 2.710938 -8.398438 2.441406 -8.3125 2.078125 -8.3125 C 1.335938 -8.3125 0.96875 -8.644531 0.96875 -9.3125 Z M 3.078125 0 L 1.0625 0 L 1.0625 -7.390625 L 3.078125 -7.390625 Z M 3.078125 0 "/></g></g></g><g fill="#ffffff" fill-opacity="1"><g transform="translate(13.337221, 18.870969)"><g><path d="M 7.890625 0 L 5.875 0 L 5.875 -4.3125 C 5.875 -4.851562 5.773438 -5.253906 5.578125 -5.515625 C 5.390625 -5.785156 5.085938 -5.921875 4.671875 -5.921875 C 4.109375 -5.921875 3.703125 -5.726562 3.453125 -5.34375 C 3.203125 -4.96875 3.078125 -4.347656 3.078125 -3.484375 L 3.078125 0 L 1.0625 0 L 1.0625 -7.390625 L 2.59375 -7.390625 L 2.875 -6.453125 L 2.984375 -6.453125 C 3.210938 -6.804688 3.519531 -7.070312 3.90625 -7.25 C 4.300781 -7.4375 4.753906 -7.53125 5.265625 -7.53125 C 6.117188 -7.53125 6.769531 -7.296875 7.21875 -6.828125 C 7.664062 -6.367188 7.890625 -5.703125 7.890625 -4.828125 Z M 7.890625 0 "/></g></g></g></svg>